<?xml version="1.0" encoding="utf-8"?>
<!-- Generator: Adobe Illustrator 25.0.1, SVG Export Plug-In . SVG Version: 6.00 Build 0)  -->
<svg version="1.1" id="Layer_1" xmlns="http://www.w3.org/2000/svg" xmlns:xlink="http://www.w3.org/1999/xlink" x="0px" y="0px"
	 viewBox="0 0 626.7 148.4" style="enable-background:new 0 0 626.7 148.4;" xml:space="preserve">
<style type="text/css">
	.st0{font-family:'RijksoverheidSerif-Regular';}
	.st1{font-size:20px;}
	.st2{fill:#E17000;}
	.st3{fill:#FFFFFF;}
</style>
<g id="Group_18" transform="translate(-929 1)">
	<text transform="matrix(1 0 0 1 1276.8102 79)" class="st0 st1">Koninklijke Landmacht</text>
	<g id="Layer_2_1_" transform="translate(929 -1)">
		<g id="Laag_1">
			<g id="Isolatiemodus">
				<rect id="Rectangle_23" x="272.8" class="st2" width="62" height="124"/>
				<path id="Path_67" class="st3" d="M309.4,60.6c0,0.5-2.5,0.9-5.7,0.9c-3.1,0-5.7-0.4-5.7-0.9s2.5-0.9,5.7-0.9
					C306.8,59.7,309.4,60,309.4,60.6z"/>
				<path id="Path_68" class="st3" d="M303.7,56.6h0.8c0.3-1.8,0.4-3.6,0.5-5.5c0.7-0.2,2.6-0.6,2.6,0.9c-0.1,1.6-0.5,3.2-1.2,4.8
					c0.4,0,0.9,0.1,1.3,0.2c1-1.5,1.8-3.3,2.1-5.1c1-0.2,1.7,0.1,1.7,1c-0.4,1.6-1.2,3.1-2.2,4.4c0.4,0.1,0.7,0.2,1.1,0.4
					c1.3-1.7,2.9-3.4,2.9-5.2c0-1.2-0.9-1.9-2.3-1.9c-0.4,0-0.8,0.1-1.2,0.3c-0.4-0.9-1.2-1.5-2.2-1.5c-1,0.2-2,0.4-3,0.8l-0.1-0.3
					c0.5-0.2,0.8-0.7,0.8-1.2c0-0.7-0.6-1.2-1.2-1.2c0,0,0,0,0,0v-0.7l0,0l0.9,0.1v-1l-0.9,0.1l0,0l0.1-0.9h-1l0.1,0.9l0,0l-0.9-0.1
					v1l0.9-0.1l0,0v0.7c-0.7,0-1.2,0.6-1.2,1.2l0,0c0,0.5,0.3,1,0.8,1.2l-0.1,0.3c-0.9-0.3-1.9-0.6-2.9-0.8c-0.9,0-1.8,0.6-2.2,1.5
					c-0.4-0.1-0.9-0.2-1.3-0.2c-1.4,0-2.3,0.7-2.3,1.9c0,1.8,1.6,3.5,2.9,5.2c0.4-0.2,0.7-0.3,1.1-0.4c-1.1-1.3-1.8-2.8-2.2-4.4
					c0-0.9,0.6-1.2,1.7-1c0.4,1.8,1.1,3.5,2.1,5.1c0.4-0.1,0.8-0.1,1.2-0.2c-0.6-1.5-1-3.1-1.1-4.7c0-1.5,1.9-1.1,2.6-0.9
					c0,1.8,0.2,3.7,0.5,5.5C303.1,56.7,303.4,56.7,303.7,56.6z"/>
				<path id="Path_69" class="st3" d="M304.7,58.1c0,0.4-0.4,0.7-1,0.7s-1-0.3-1-0.7s0.4-0.7,1-0.7S304.7,57.7,304.7,58.1z"/>
				<path id="Path_70" class="st3" d="M301.6,58.2c0,0.4-0.3,0.7-0.8,0.7s-0.9-0.2-1-0.6c0-0.4,0.3-0.7,0.8-0.7
					S301.5,57.9,301.6,58.2z"/>
				<path id="Path_71" class="st3" d="M298.7,58.8c0,0.4-0.2,0.7-0.6,0.7c-0.4,0-0.7-0.2-0.7-0.6s0.2-0.7,0.6-0.7c0,0,0,0,0.1,0
					C298.4,58.2,298.7,58.5,298.7,58.8C298.7,58.8,298.7,58.8,298.7,58.8z"/>
				<path id="Path_72" class="st3" d="M305.8,58.2c0,0.4,0.3,0.7,0.8,0.7c0.5,0,0.9-0.2,1-0.6c0-0.4-0.3-0.7-0.8-0.7
					C306.2,57.6,305.8,57.9,305.8,58.2z"/>
				<path id="Path_73" class="st3" d="M308.6,58.8c0,0.4,0.2,0.7,0.6,0.7c0.4,0,0.7-0.2,0.7-0.6c0-0.4-0.2-0.7-0.6-0.7
					c0,0,0,0-0.1,0C308.9,58.2,308.7,58.5,308.6,58.8z"/>
				<path id="Path_74" class="st3" d="M303.7,100.9c-1.1,0-2.1-0.1-3.1-0.3c-0.1-2.7,3.7-4.6,5.5-5.3c-1.1-1.5-2.7-2.5-4.6-2.7
					c0.6,0.3,1.1,0.9,1.4,1.5c-3.6-0.4-7.7,0.6-7.9,4.3c-1,0.1-1.9,0.5-2.7,1.1c2.5-0.2,4.6,1.7,4.8,4.1c0,0.4,0,0.7-0.1,1.1
					c-1.8-0.9-6-1.8-6.1,1c0.7-0.3,1.6-0.3,2.3,0c-1,0.4-1.2,1.8-0.8,2.8c0.6-1,1.5-1.6,2.6-1.8c-0.6,0.7-0.8,1.6-0.4,2.5
					c0.8-1.1,3.4-1.5,5.2-1.8c0.1-1.7,1.5-2.9,3.6-3.5c-0.7-0.3-1.3-0.7-1.8-1.2C302.5,102.3,303.2,101.7,303.7,100.9z"/>
				<path id="Path_75" class="st3" d="M292.5,95.8c2-0.7,3.8-2,5.1-3.7c-2.7-0.6-4.4-0.4-5.2,0.6L292.5,95.8z"/>
				<path id="Path_76" class="st3" d="M287.2,88.6c0.3-1.7,2.1-2.7,5.4-2.2c-0.1-1.2,0-2.4,0.3-3.6l-1.3-1.8l-0.1,1.9l-1.3-1.4
					l0.1,1.9l-1.5-1.2l0.3,1.9l-1.6-1.1l0.5,1.9l-1.7-0.9l0.7,1.8l-1.8-0.7l0.9,1.7l-1.9-0.5l1.2,1.8
					C285.9,88.2,286.6,88.3,287.2,88.6z"/>
				<path id="Path_77" class="st3" d="M293.7,90.7c6-1.9,8.2-2.7,8.3-5.2c-1.7-0.2-4.5-0.5-8.6,2.3c-3.8-0.6-4.6,0.5-4.7,1.5
					c0.7-0.3,1.4-0.3,2.1-0.2c-1,0.4-1.8,1.2-1.4,2.2c0.5-0.6,1.3-0.9,2.1-0.8c-0.8,0.5-1,1.5-0.6,2.2c0,0,0,0.1,0.1,0.1
					C291.6,91.8,292.5,91,293.7,90.7z"/>
				<path id="Path_78" class="st3" d="M293.1,78.6c0,1.5,0.4,2.9,1.2,4.2c0.8-1.6,2.2-2.5,4.7-3.5c-1.9-0.6-3.4-2-4.2-3.8
					c-0.9,0.7-2.1,1.1-3.2,0.9c0.2,0.9,0.2,1.9,0.1,2.8C292.3,79.2,292.8,79,293.1,78.6L293.1,78.6z"/>
				<path id="Path_79" class="st3" d="M294.1,72.6c0.5,0.7,0.8,1.6,0.9,2.5c0.7-0.2,1.3-0.6,1.9-1.1c-0.6-0.4-1-0.9-1.4-1.4
					c3.6-1.8,7.3-3.4,11.1-4.7l1.6-2.3h-2.7c-3.7,1.6-7.3,3.4-10.8,5.5c-0.3-0.7-0.5-1.4-0.6-2.1c-0.7,0.2-1.4,0.6-2,1.1
					c0.6,0.4,1.1,1,1.5,1.6h-0.1c-0.5-0.3-1-0.1-1.3,0.4c0,0,0,0,0,0.1c-0.5-0.2-1.1,0-1.3,0.5c0,0,0,0.1-0.1,0.2
					c-0.6-0.1-1.2,0.3-1.3,0.9c0,0.2,0,0.4,0.1,0.6c-0.1-0.1-0.3-0.1-0.4-0.1c-0.7,0-1.3,0.5-1.3,1.1c0,0.6,0.4,1.2,1.1,1.2
					c0,0,0,0,0.1,0c0.7,0,1.2-0.5,1.3-1.1c0.3,0.3,0.7,0.5,1.1,0.7c-0.2-0.5-0.2-1-0.2-1.6c0.3,0.5,0.8,0.8,1.4,0.9
					c-0.2-0.6-0.2-1.2-0.2-1.8c0.3,0.5,0.8,0.9,1.3,1.1c-0.2-0.7-0.1-1.4,0.2-2.1L294.1,72.6z"/>
				<path id="Path_80" class="st3" d="M303.7,77.2c0.5-0.2,0.7-0.4,0.7-0.6c0-0.2-0.2-0.4-0.8-0.2c-2,0.7-4,0.2-4-1.8
					c0-0.4,0.1-0.7,0.3-1C297,73.8,297.3,79.5,303.7,77.2z"/>
				<path id="Path_81" class="st3" d="M312,75.8l0.2,0.1l2.7-1.7l-1.7-0.3c-0.1,0.2-0.4,0.4-0.7,0.4c-0.4,0-0.8-0.3-0.8-0.8
					c0,0,0,0,0,0c0-0.5,0.4-0.8,0.8-0.8v-1.5h-1.5c0,0.4-0.4,0.8-0.8,0.8c-0.4,0-0.8-0.3-0.8-0.8c0,0,0,0,0,0c0-0.3,0.1-0.5,0.4-0.7
					l-0.3-1.7l-1.7,2.7c0,0.1,0.1,0.1,0.1,0.2l-0.1,0.1c-1.2-0.2-2.5,0.1-3.4,1c-1-0.1-2.1,0.2-3,0.7c-0.2,0.9,0.1,1.9,0.9,2.4h0.1
					c0-0.3,0.7-0.6,1.4-0.6c0.7-0.1,1.3,0.4,1.4,1.1c0,0.1,0,0.1,0,0.2c0,1-1.4,1.6-2.7,1.4c0.1,1.2,1.8,1.1,3,0.6
					c-0.1,1-1.3,1.5-3.7,1.8c-3.9,0.4-6.5,2.1-7,4.7c1.5-0.9,3.3-1.4,5.1-1.4c1.1,0.1,2.2,0.1,3.3,0c0.1,1,0,2-0.3,2.9
					c1.5-0.8,2.8-1.9,3.9-3.2c0.6,1,1.4,1.8,2.3,2.5c0-1.1,0.2-2.1,0.7-3.1c0.6,0.7,1.3,1.3,2.1,1.6c-0.4-1-0.5-2.1-0.4-3.2
					c0.6-1.8,0.6-3.7,0.2-5.5L312,75.8z M304.9,72.9c1,0.1,1.9,0.2,2.9,0.2c-0.3,0.7-1,1.2-1.8,1.2c-0.2-0.5-0.6-1-1.1-1.2
					L304.9,72.9z M309.3,73.1c0.1,0,0.2,0,0.3,0c0.7,0,1.2,0.6,1.2,1.2c0,0.7-0.6,1.2-1.2,1.2h-0.3
					C309.7,74.8,309.7,73.9,309.3,73.1z"/>
				<path id="Path_82" class="st3" d="M289.3,91.9c-0.8,0.3-1.5,0.8-2,1.6c-0.3,0.6-0.8,1.2-1.3,1.7c0.6,0.1,1.2-0.1,1.7-0.4
					c-0.2,0.6-0.2,1.2,0,1.8c0.3-0.7,0.6-1.4,1.1-2c0.3-0.4,0.8-0.7,1.2-1C289.4,93.2,289.2,92.5,289.3,91.9L289.3,91.9z"/>
				<path id="Path_83" class="st3" d="M317.9,85.9c1.6,0.4,3.2-0.6,3.6-2.1c0-0.1,0.1-0.3,0.1-0.4c0-1.5-1.2-2.7-2.6-2.7
					c-0.1,0-0.2,0-0.3,0c-2-0.1-3.8,1.4-3.9,3.5c0,0.8,0.1,1.5,0.5,2.2c-2.4-0.2-3.5,1.2-3.5,2.5s0.9,2.5,2.3,2
					c-0.5-0.4-0.6-1.2-0.2-1.7c0.2-0.3,0.6-0.5,1-0.5c1.2,0,1.8,0.9,1.8,2.2c0,1.5-1.2,2.7-2.6,2.7c-0.1,0-0.2,0-0.3,0
					c-1.2,0-2.4-0.7-2.9-1.9c-0.8-2.2-2.1-4.2-3.7-5.9c-1.8,2.1-4.2,3.6-6.9,4.1c3.7,1.2,6.2,2.7,7.6,5.5c-1.4,1.5-1.8,3.7-0.9,5.5
					c0.1,0.7,0,1.5-0.3,2.2c0.8-0.3,1.6-0.7,2.3-1.2c1,0.5,2,0.8,3,1c-0.1,0.4-0.1,1.2-0.1,1.6c-4.6,0.1-7.4,1.2-6.9,3.3
					c0.9-0.5,1.8-0.9,2.8-1.1c-0.9,0.9-1.1,1.8-0.8,2.4c0.9-0.7,1.9-1.2,3-1.6c-0.4,0.7-0.6,1.5-0.5,2.3c1.5-1.2,3.2-2.2,5-2.8
					c0.6-3.2,2.4-4.2,3.8-3.7c-0.4-1.1-1.5-1.7-2.7-1.6c-0.7-1.2-1.6-2.1-2.8-2.8c0.3-1.2,0.2-2.5-0.2-3.6c2.2,0.4,4.4-0.7,5.5-2.6
					c0.7-0.4,1.5-0.4,2.2,0c0.1-0.8-0.6-1.5-1.8-1.4c0.3-2.7-0.6-3.9-1.9-4.7c-0.5-1.4,0.1-3.1,1.6-3.1c0.6-0.1,1.1,0.3,1.2,0.9
					c0,0.1,0,0.2,0,0.3C319.2,85.2,318.6,85.6,317.9,85.9z"/>
			</g>
		</g>
	</g>
</g>
</svg>
